
<svg xmlns="http://www.w3.org/2000/svg" version="1.1" xmlns:xlink="http://www.w3.org/1999/xlink" preserveAspectRatio="none" x="0px" y="0px" width="550px" height="400px" viewBox="0 0 550 400">
<defs>
<g id="Layer0_0_FILL">
<path fill="#000000" stroke="none" d="
M 67.35 47.85
Q 61.8 45.85 52.2 45.85
L 26 45.85 26 47.8 28.7 47.8
Q 32.75 47.8 34.8 50.1 36.2 51.75 36.2 58.5
L 36.2 104.7
Q 36.2 110.8 35.15 112.45 33.2 115.4 28.7 115.4
L 26 115.4 26 117.35 56.65 117.35 56.65 115.4 53.9 115.4
Q 49.85 115.4 47.8 113.1 46.35 111.45 46.35 104.7
L 46.35 83.85
Q 49.8 84.6 52.8 84.95 55.8 85.35 58.35 85.35 68.9 85.35 74.7 79.85 80.45 74.35 80.45 65.6 80.45 59.2 76.65 54.5 72.85 49.8 67.35 47.85
M 61.15 52.1
Q 64.65 54.05 66.55 58.1 68.45 62.05 68.45 66.65 68.45 73.4 64.5 77.7 60.5 81.9 55 81.9 53.45 81.9 51.3 81.65 49.15 81.4 46.35 80.85
L 46.35 51.1
Q 50.55 50.1 53.25 50.1 57.7 50.1 61.15 52.1
M 91 80.5
Q 87.7 87.05 87.7 93.65 87.7 102.8 93.1 110.15 99.55 118.85 110.45 118.85 117.15 118.85 122.65 115.45 128.1 112.1 131.2 105.45 134.3 98.8 134.3 92.3 134.3 83.05 128.65 75.95 122 67.6 111.05 67.6 105.05 67.6 99.65 70.8 94.3 73.9 91 80.5
M 103.8 72.75
Q 106.6 71.05 109.4 71.05 115.2 71.05 118.95 76.1 124.5 83.5 124.5 96.35 124.5 106.65 121.15 110.85 117.85 115.1 112.75 115.1 105.9 115.1 101.7 107.45 97.5 99.8 97.5 89.25 97.5 82.7 99.25 78.55 101 74.35 103.8 72.75
M 182.65 75.95
Q 176 67.6 165.05 67.6 159.05 67.6 153.65 70.8 148.3 73.9 145 80.5 141.7 87.05 141.7 93.65 141.7 102.8 147.1 110.15 153.55 118.85 164.45 118.85 171.15 118.85 176.65 115.45 182.1 112.1 185.2 105.45 188.3 98.8 188.3 92.3 188.3 83.05 182.65 75.95
M 172.95 76.1
Q 178.5 83.5 178.5 96.35 178.5 106.65 175.15 110.85 171.85 115.1 166.75 115.1 159.9 115.1 155.7 107.45 151.5 99.8 151.5 89.25 151.5 82.7 153.25 78.55 155 74.35 157.8 72.75 160.6 71.05 163.4 71.05 169.2 71.05 172.95 76.1
M 245.4 71
L 245.4 69.05 229.7 69.05 229.7 71
Q 231.95 71 232.85 71.35 233.75 71.7 234.2 72.25 234.55 72.75 234.55 73.7 234.55 75.8 233.65 77.95
L 222.85 104.65 211.1 80.3
Q 209.35 76.65 209.35 74.6 209.35 73.05 210.55 72.05 211.7 71 214.1 71
L 215.2 71 215.2 69.05 192.7 69.05 192.7 71
Q 195.35 71.65 196.6 72.45 197.45 73.1 198.75 74.95 200.5 77.4 201.3 79
L 218.65 115.45 215.2 123.85
Q 213.3 128.55 211.45 130.15 209.55 131.8 208 131.8 207.45 131.8 205.35 131 202.35 129.85 200.6 129.85 198.05 129.85 196.65 131.2 195.15 132.55 195.15 134.75 195.15 137.05 197.15 138.85 199.15 140.65 202.3 140.65 206.55 140.65 211.2 137.05 215.8 133.5 218.65 126.45
L 238.3 78.25
Q 239.6 74.95 240.1 74.2 241.35 72.45 242.4 71.85 243.45 71.2 245.4 71
M 279.95 69.8
Q 275.85 67.6 269.4 67.6 261.05 67.6 256.4 71.4 251.75 75.2 251.75 79.75 251.75 82.1 253 83.5 254.2 84.85 256.15 84.85 258.2 84.85 259.45 83.55 260.65 82.25 260.65 79.8
L 260.55 76.75
Q 260.55 74.45 262.55 72.65 264.5 70.85 267.85 70.85 272.2 70.85 274.55 73.55 276.8 76.2 276.8 83.45
L 276.8 85.35
Q 264.35 89.9 259 93.05 253.65 96.2 251.5 99.8 249.9 102.35 249.9 105.9 249.9 111.5 253.15 114.9 256.4 118.35 261.4 118.35 264.6 118.35 267.45 117.05 269.35 116.15 276.8 110.4 276.85 114.7 278.4 116.5 279.9 118.3 282.5 118.3 287.85 118.3 293.75 110.4
L 293.75 107.45
Q 290.6 110.6 289.5 111.3 288.85 111.65 288.05 111.65 287.25 111.65 286.65 111.15 286 110.6 285.75 109.05 285.5 107.5 285.5 100.6
L 285.5 84.2
Q 285.5 77.15 284.55 74.9 283.05 71.4 279.95 69.8
M 266.5 93.05
Q 268.85 91.7 276.8 88.55
L 276.8 106.95
Q 270.25 112.25 266.25 112.25 263.3 112.25 261.05 109.75 258.75 107.25 258.75 103.45 258.75 100.4 260.55 97.9 262.35 95.35 266.5 93.05 Z"/>
</g>
</defs>

<g transform="matrix( 1, 0, 0, 1, 0,0) ">
<use xlink:href="#Layer0_0_FILL"/>
</g>
</svg>
