
<svg xmlns="http://www.w3.org/2000/svg" version="1.1" xmlns:xlink="http://www.w3.org/1999/xlink" preserveAspectRatio="none" x="0px" y="0px" width="550px" height="400px" viewBox="0 0 550 400">
<defs>
<g id="Layer0_0_FILL">
<path fill="#000000" stroke="none" d="
M 345.05 169.35
L 345.65 169.35
Q 345.7 168.3 346.1 167.55 346.35 167.05 346.8 166.9 347.2 166.7 348.6 166.7
L 352.9 166.7 344.2 178.35 344.2 178.85 355.8 178.85 355.95 174.8 355.45 174.8
Q 355.3 176.3 355.05 176.75 354.75 177.4 354.2 177.65 353.65 177.9 352.15 177.9
L 347.35 177.9 356.2 166.25 356.2 165.7 345.15 165.7 345.05 169.35
M 332.05 168.6
Q 332.05 169.25 332.4 169.65 332.75 170 333.25 170 333.8 170 334.15 169.65 334.5 169.3 334.5 168.65
L 334.45 167.8
Q 334.45 167.15 335 166.7 335.5 166.2 336.45 166.2 337.6 166.2 338.25 166.9 338.85 167.65 338.85 169.6
L 338.85 170.15
Q 335.5 171.35 334.05 172.25 332.55 173.1 332 174.05 331.55 174.75 331.55 175.75 331.55 177.25 332.45 178.2 333.3 179.1 334.7 179.1 335.55 179.1 336.35 178.75 336.85 178.5 338.85 176.95 338.9 178.15 339.3 178.6 339.7 179.1 340.4 179.1 341.9 179.1 343.5 176.95
L 343.5 176.15
Q 342.65 177 342.35 177.2 342.15 177.3 341.95 177.3 341.7 177.3 341.55 177.15 341.4 177 341.3 176.6 341.25 176.15 341.25 174.3
L 341.25 169.8
Q 341.25 167.9 341 167.3 340.6 166.35 339.75 165.9 338.6 165.3 336.85 165.3 334.6 165.3 333.3 166.35 332.05 167.4 332.05 168.6
M 336.05 172.25
Q 336.7 171.85 338.85 171
L 338.85 176
Q 337.1 177.45 336 177.45 335.2 177.45 334.6 176.8 333.95 176.1 333.95 175.05 333.95 174.25 334.45 173.55 334.95 172.85 336.05 172.25
M 329.9 166.4
Q 329.85 166.3 329.75 166.25 329.65 166.25 329 166.25
L 326.25 166.25
Q 324.85 165.3 323 165.3 320.7 165.3 319.2 166.7 317.75 168.15 317.75 170.1 317.75 171.35 318.4 172.4 319.05 173.45 320.25 174.05 318.75 175.3 318.35 175.95 317.95 176.65 317.95 177.15 317.95 177.6 318.25 177.95 318.55 178.3 319.3 178.75 317.95 180.15 317.85 180.3 317.1 181.25 316.85 181.75 316.7 182.1 316.7 182.45 316.7 183.25 317.75 183.95 319.65 185.2 322.45 185.2 326.05 185.2 328.25 183.1 329.8 181.7 329.8 180.05 329.8 178.9 329 178.05 328.2 177.25 326.85 177.1 326 176.95 323.05 176.9 321.45 176.85 321.05 176.8 320.35 176.7 320.1 176.45 319.85 176.2 319.85 176 319.85 175.7 320.1 175.3 320.3 174.85 320.95 174.35 321.95 174.6 322.95 174.6 325.3 174.6 326.7 173.3 328.1 172 328.1 170.15 328.1 168.55 327.3 167.5
L 329 167.5
Q 329.65 167.5 329.75 167.5 329.85 167.45 329.9 167.35 329.95 167.2 329.95 166.85 329.95 166.5 329.9 166.4
M 325.6 170.5
Q 325.6 172.3 324.9 173.1 324.2 173.9 323.1 173.9 321.95 173.9 321.2 172.95 320.25 171.7 320.25 169.45 320.25 167.7 320.95 166.85 321.65 166 322.75 166 323.9 166 324.6 166.95 325.6 168.25 325.6 170.5
M 325.05 179.2
Q 327.25 179.25 328 179.55 328.75 179.85 328.75 180.6 328.75 181.65 327.55 182.55 326.3 183.45 323.7 183.45 321 183.45 319.55 182.6 318.75 182.05 318.75 181.4 318.75 180.85 319.05 180.2 319.4 179.6 320.1 178.85 321.85 179.1 325.05 179.2
M 307.45 172.05
Q 307.45 169.5 305.9 167.6 304.1 165.3 301.1 165.3 299.45 165.3 298 166.15 296.55 167 295.65 168.8 294.75 170.6 294.75 172.4 294.75 174.9 296.2 176.9 297.95 179.25 300.95 179.25 302.75 179.25 304.25 178.35 305.75 177.4 306.6 175.6 307.45 173.8 307.45 172.05
M 297.9 168.3
Q 298.35 167.15 299.15 166.7 299.9 166.25 300.65 166.25 302.25 166.25 303.25 167.6 304.75 169.65 304.75 173.15 304.75 175.95 303.85 177.1 302.95 178.25 301.55 178.25 299.7 178.25 298.55 176.15 297.4 174.05 297.4 171.2 297.4 169.4 297.9 168.3
M 283.3 165.85
Q 283.05 165.85 282.3 165.65 281.2 165.3 280.45 165.3 278.65 165.3 277.55 166.4 276.45 167.5 276.45 169.1 276.45 170.35 277.1 171.2 277.75 172 279.8 173.05 281.9 174.1 282.6 174.75 283.3 175.45 283.3 176.4 283.3 177.25 282.65 177.85 282.05 178.4 281.05 178.4 279.65 178.4 278.5 177.4 277.35 176.35 276.95 174.35
L 276.5 174.35 276.5 179.05 276.95 179.05
Q 277.15 178.7 277.5 178.7 277.8 178.7 278.25 178.8 279.8 179.25 281 179.25 282.7 179.25 284.05 178.15 285.4 177.05 285.4 175.25 285.4 172.95 282.5 171.5
L 280.4 170.5
Q 279.05 169.85 278.6 169.25 278.15 168.65 278.15 167.85 278.15 167.2 278.75 166.7 279.35 166.15 280.35 166.15 281.7 166.15 282.55 166.9 283.4 167.7 283.95 169.8
L 284.4 169.8 284.4 165.3 283.95 165.3
Q 283.75 165.65 283.65 165.75 283.5 165.85 283.3 165.85
M 272.25 165.3
L 271.6 165.3 267.65 166.9 267.85 167.45
Q 268.45 167.2 268.85 167.2 269.2 167.2 269.45 167.4 269.65 167.6 269.75 168.05 269.85 168.65 269.85 170.8
L 269.85 175.9
Q 269.85 177.1 269.7 177.55 269.5 177.95 269.15 178.15 268.8 178.35 267.85 178.35
L 267.85 178.85 274.25 178.85 274.25 178.35
Q 273.3 178.35 272.95 178.15 272.6 177.95 272.45 177.55 272.25 177.1 272.25 175.9
L 272.25 165.3
M 272.1 158.85
Q 271.65 158.45 271.05 158.45 270.45 158.45 270.05 158.85 269.6 159.3 269.6 159.9 269.6 160.5 270.05 160.9 270.45 161.35 271.05 161.35 271.65 161.35 272.1 160.9 272.5 160.5 272.5 159.9 272.5 159.3 272.1 158.85
M 264.05 158.45
L 263.4 158.45 259.5 160.05 259.7 160.55
Q 260.3 160.3 260.65 160.3 261 160.3 261.25 160.5 261.45 160.7 261.55 161.2 261.65 161.7 261.65 163.95
L 261.65 175.9
Q 261.65 177.1 261.45 177.55 261.3 177.95 260.95 178.15 260.6 178.35 259.7 178.35
L 259.7 178.85 266.15 178.85 266.15 178.35
Q 265.15 178.35 264.75 178.15 264.4 177.9 264.25 177.5 264.05 177.1 264.05 175.9
L 264.05 158.45
M 240.8 166.15
Q 239.35 167 238.45 168.8 237.55 170.6 237.55 172.4 237.55 174.9 239 176.9 240.75 179.25 243.75 179.25 245.55 179.25 247.05 178.35 248.55 177.4 249.4 175.6 250.25 173.8 250.25 172.05 250.25 169.5 248.7 167.6 246.9 165.3 243.9 165.3 242.25 165.3 240.8 166.15
M 240.2 171.2
Q 240.2 169.4 240.7 168.3 241.15 167.15 241.95 166.7 242.7 166.25 243.45 166.25 245.05 166.25 246.05 167.6 247.55 169.65 247.55 173.15 247.55 175.95 246.65 177.1 245.75 178.25 244.35 178.25 242.5 178.25 241.35 176.15 240.2 174.05 240.2 171.2
M 223.15 166.15
Q 224.5 166.15 225.35 166.9 226.2 167.7 226.75 169.8
L 227.2 169.8 227.2 165.3 226.75 165.3
Q 226.55 165.65 226.45 165.75 226.3 165.85 226.1 165.85 225.85 165.85 225.1 165.65 224 165.3 223.25 165.3 221.45 165.3 220.35 166.4 219.25 167.5 219.25 169.1 219.25 170.35 219.9 171.2 220.55 172 222.6 173.05 224.7 174.1 225.4 174.75 226.1 175.45 226.1 176.4 226.1 177.25 225.45 177.85 224.85 178.4 223.85 178.4 222.45 178.4 221.3 177.4 220.15 176.35 219.75 174.35
L 219.3 174.35 219.3 179.05 219.75 179.05
Q 219.95 178.7 220.3 178.7 220.6 178.7 221.05 178.8 222.6 179.25 223.8 179.25 225.5 179.25 226.85 178.15 228.2 177.05 228.2 175.25 228.2 172.95 225.3 171.5
L 223.2 170.5
Q 221.85 169.85 221.4 169.25 220.95 168.65 220.95 167.85 220.95 167.2 221.55 166.7 222.15 166.15 223.15 166.15
M 207.35 166.15
Q 205.9 167 205 168.8 204.1 170.6 204.1 172.4 204.1 174.9 205.55 176.9 207.3 179.25 210.3 179.25 212.1 179.25 213.6 178.35 215.1 177.4 215.95 175.6 216.8 173.8 216.8 172.05 216.8 169.5 215.25 167.6 213.45 165.3 210.45 165.3 208.8 165.3 207.35 166.15
M 210 166.25
Q 211.6 166.25 212.6 167.6 214.1 169.65 214.1 173.15 214.1 175.95 213.2 177.1 212.3 178.25 210.9 178.25 209.05 178.25 207.9 176.15 206.75 174.05 206.75 171.2 206.75 169.4 207.25 168.3 207.7 167.15 208.5 166.7 209.25 166.25 210 166.25
M 190.3 168.8
Q 189.4 170.6 189.4 172.4 189.4 174.9 190.85 176.9 192.6 179.25 195.6 179.25 197.4 179.25 198.9 178.35 200.4 177.4 201.25 175.6 202.1 173.8 202.1 172.05 202.1 169.5 200.55 167.6 198.75 165.3 195.75 165.3 194.1 165.3 192.65 166.15 191.2 167 190.3 168.8
M 195.3 166.25
Q 196.9 166.25 197.9 167.6 199.4 169.65 199.4 173.15 199.4 175.95 198.5 177.1 197.6 178.25 196.2 178.25 194.35 178.25 193.2 176.15 192.05 174.05 192.05 171.2 192.05 169.4 192.55 168.3 193 167.15 193.8 166.7 194.55 166.25 195.3 166.25
M 185.85 167.05
Q 184.35 165.3 182.35 165.3 180.15 165.3 178.2 167.95
L 178.2 158.45 177.6 158.45 173.65 160.05 173.85 160.55
Q 174.45 160.3 174.85 160.3 175.2 160.3 175.4 160.5 175.65 160.7 175.75 161.2 175.85 161.7 175.85 163.95
L 175.85 177.6
Q 177.1 178.4 178.3 178.85 179.45 179.25 180.6 179.25 183.05 179.25 185.05 177.4 187.4 175.3 187.4 171.75 187.4 168.75 185.85 167.05
M 183.8 168.7
Q 184.9 170.05 184.9 172.6 184.9 175.35 183.8 176.75 182.65 178.2 181.35 178.2 180.5 178.2 179.75 177.85 178.95 177.45 178.2 176.75
L 178.2 168.9
Q 179.1 168.05 179.7 167.75 180.45 167.35 181.2 167.35 182.65 167.35 183.8 168.7 Z"/>
</g>
</defs>

<g transform="matrix( 1, 0, 0, 1, 0,0) ">
<use xlink:href="#Layer0_0_FILL"/>
</g>
</svg>
